<?xml version="1.0" encoding="UTF-8"?><svg id="a" xmlns="http://www.w3.org/2000/svg" xmlns:xlink="http://www.w3.org/1999/xlink" viewBox="0 0 30 30"><defs><clipPath id="b"><rect width="30" height="30" fill="none"/></clipPath></defs><g clip-path="url(#b)"><g><path d="m15,28.45c3.93,0,7.45-1.66,9.93-4.45-.93-2.69-2.79-4.86-5.28-6.1-1.24,1.14-2.79,1.86-4.66,1.86s-3.41-.72-4.66-1.86c-2.48,1.24-4.45,3.41-5.28,6.1,2.48,2.79,6,4.45,9.93,4.45Z" fill="#fff"/><path d="m11.28,16.76c.21.21.41.41.72.62.83.62,1.86.93,3,.93s2.07-.31,3-.93c.21-.21.52-.41.72-.62s.41-.41.52-.62c.62-.83,1.03-1.97,1.03-3.1,0-2.9-2.38-5.28-5.28-5.28s-5.28,2.38-5.28,5.28c0,1.14.41,2.28,1.03,3.1.21.21.31.41.52.62Z" fill="#fff"/><path d="m9.31,16.76c-.72-1.03-1.14-2.38-1.14-3.72,0-3.72,3.1-6.83,6.83-6.83s6.83,3,6.83,6.83c0,1.34-.41,2.69-1.14,3.72,2.12,1.2,4.18,3.16,5.38,5.9,1.55-2.17,2.38-4.76,2.38-7.66,0-7.45-6-13.45-13.45-13.45S1.55,7.55,1.55,15c0,2.79.83,5.48,2.38,7.66,1.03-2.59,3-4.66,5.38-5.9Z" fill="#f7f0e7"/><path d="m15,0C6.72,0,0,6.72,0,15c0,3.52,1.24,6.83,3.31,9.41.41.52.83.93,1.34,1.45,2.69,2.59,6.31,4.14,10.34,4.14s7.66-1.55,10.34-4.14c.41-.41.93-.93,1.24-1.45,2.07-2.59,3.31-5.79,3.31-9.41.1-8.28-6.62-15-14.9-15Zm0,28.45c-3.93,0-7.45-1.66-9.93-4.45.93-2.69,2.79-4.86,5.28-6.1,1.24,1.14,2.79,1.86,4.66,1.86s3.41-.72,4.66-1.86c2.48,1.24,4.45,3.41,5.28,6.1-2.48,2.79-6,4.45-9.93,4.45Zm-5.28-15.41c0-2.9,2.38-5.28,5.28-5.28s5.28,2.38,5.28,5.28c0,1.14-.41,2.28-1.03,3.1-.21.21-.31.41-.52.62s-.41.41-.72.62c-.83.62-1.86.93-3,.93s-2.17-.31-3-.93c-.21-.21-.52-.41-.72-.62s-.41-.41-.52-.62c-.62-.83-1.03-1.97-1.03-3.1Zm16.34,9.62c-1.03-2.48-3-4.55-5.38-5.9.72-1.03,1.14-2.38,1.14-3.72,0-3.72-3.1-6.83-6.83-6.83s-6.83,3-6.83,6.83c0,1.34.41,2.69,1.14,3.72-2.38,1.24-4.34,3.31-5.38,5.9-1.55-2.17-2.38-4.76-2.38-7.66C1.55,7.55,7.55,1.55,15,1.55s13.45,6,13.45,13.45c0,2.79-.93,5.48-2.38,7.66Z" fill="#343434"/></g></g></svg>